<svg xmlns="http://www.w3.org/2000/svg" width="1088" height="96" viewBox="0 0 1088 96">
  <g id="bg-7" transform="translate(-139 -1610)">
    <text id="We_started_with_the_data_Discovery_" data-name="We started with the data
(Discovery)" transform="translate(242 1629)" fill="rgba(0,0,0,0.87)" font-size="18" font-family="Manrope-Regular, Manrope"><tspan x="-102.037" y="0">We started with the data</tspan><tspan x="-48.114" y="24">(Discovery)</tspan></text>
    <text id="The_we_conducted_user_interviews_Total:_33_From:_4_states_User_research_" data-name="The we conducted user interviews
Total: 33 
From: 4 states
(User research)" transform="translate(577 1629)" fill="rgba(0,0,0,0.87)" font-size="18" font-family="Manrope-Regular, Manrope"><tspan x="-141.484" y="0">The we conducted user interviews</tspan><tspan text-decoration="underline"><tspan x="-36.922" y="24" xml:space="preserve">Total: 33 </tspan><tspan x="-58.977" y="48">From: 4 states</tspan></tspan><tspan x="-65.628" y="72">(User research)</tspan></text>
    <text id="Re-iterated_the_designs_Iterate_" data-name="Re-iterated the designs
(Iterate)" transform="translate(907 1629)" fill="rgba(0,0,0,0.87)" font-size="18" font-family="Manrope-Regular, Manrope"><tspan x="-98.212" y="0">Re-iterated the designs</tspan><tspan x="-34.843" y="24">(Iterate)</tspan></text>
    <text id="High_fid_designs_Deliver_" data-name="High fid designs
(Deliver)" transform="translate(1160 1629)" fill="rgba(0,0,0,0.87)" font-size="18" font-family="Manrope-Regular, Manrope"><tspan x="-66.114" y="0">High fid designs</tspan><tspan x="-35.892" y="24">(Deliver)</tspan></text>
    <g id="arrow_forward_black_24dp" transform="translate(377 1610)">
      <path id="Path_46829" data-name="Path 46829" d="M0,0H24V24H0Z" fill="none"/>
      <path id="Path_46830" data-name="Path 46830" d="M12,4,10.59,5.41,16.17,11H4v2H16.17l-5.58,5.59L12,20l8-8Z" fill="#e8985e"/>
    </g>
    <g id="arrow_forward_black_24dp-2" data-name="arrow_forward_black_24dp" transform="translate(752 1610)">
      <path id="Path_46829-2" data-name="Path 46829" d="M0,0H24V24H0Z" fill="none"/>
      <path id="Path_46830-2" data-name="Path 46830" d="M12,4,10.59,5.41,16.17,11H4v2H16.17l-5.58,5.59L12,20l8-8Z" fill="#e8985e"/>
    </g>
    <g id="arrow_forward_black_24dp-3" data-name="arrow_forward_black_24dp" transform="translate(1036 1610)">
      <path id="Path_46829-3" data-name="Path 46829" d="M0,0H24V24H0Z" fill="none"/>
      <path id="Path_46830-3" data-name="Path 46830" d="M12,4,10.59,5.41,16.17,11H4v2H16.17l-5.58,5.59L12,20l8-8Z" fill="#e8985e"/>
    </g>
  </g>
</svg>
